<svg width="14" height="14" viewBox="0 0 14 14" fill="none" xmlns="http://www.w3.org/2000/svg">
<path fill-rule="evenodd" clip-rule="evenodd" d="M9.23605 2.22156C9.1503 1.90219 8.91011 1.64713 8.59598 1.54256C8.2823 1.438 7.93711 1.49794 7.6768 1.70269C6.26017 2.81569 3.41511 5.05219 3.41511 5.05219C3.31186 5.13313 3.2668 5.26831 3.30092 5.39519L4.1733 8.65063C4.20698 8.7775 4.31373 8.87156 4.44367 8.89038C4.44367 8.89038 8.02592 9.40444 9.80917 9.66038C10.1364 9.70719 10.4659 9.58688 10.685 9.33925C10.9047 9.09163 10.9852 8.75081 10.8999 8.431C10.4807 6.8665 9.65517 3.78606 9.23605 2.22156Z" fill="#E21A1A"/>
<path fill-rule="evenodd" clip-rule="evenodd" d="M3.93486 5.22505C3.88805 5.05005 3.7078 4.94636 3.5328 4.99317C3.5328 4.99317 2.71643 5.21192 2.05055 5.39042C1.74211 5.47311 1.47961 5.6748 1.31993 5.95086C1.16024 6.22736 1.11693 6.55592 1.19961 6.86392C1.32868 7.34561 1.49011 7.94717 1.61918 8.42886C1.70143 8.7373 1.90311 9.00023 2.17961 9.15948C2.45611 9.31917 2.78424 9.36248 3.09268 9.2798C3.75855 9.1013 4.57493 8.88255 4.57493 8.88255C4.74993 8.83573 4.85405 8.65548 4.80724 8.48048L3.93486 5.22505Z" fill="#E21A1A"/>
<path fill-rule="evenodd" clip-rule="evenodd" d="M5.0776 8.31814C4.96823 8.30283 4.85885 8.34308 4.78535 8.42533C4.71229 8.50802 4.6856 8.62177 4.71404 8.72808L5.14716 10.3455C5.19135 10.51 5.3541 10.6133 5.52166 10.5835C5.56498 10.5756 5.60873 10.566 5.65204 10.5546C6.43385 10.3451 6.91379 9.56852 6.7681 8.78627C6.74229 8.64802 6.63116 8.54127 6.49204 8.52114L5.0776 8.31814ZM5.6901 9.83539L5.4766 9.0387L6.13504 9.1332C6.11316 9.42458 5.94691 9.69014 5.6901 9.83539Z" fill="#E21A1A"/>
<path fill-rule="evenodd" clip-rule="evenodd" d="M5.34803 8.55839C5.3139 8.43151 5.20759 8.33701 5.07765 8.3182L4.5369 8.24076C4.49272 8.23464 4.44809 8.23726 4.40522 8.24864L3.2629 8.55489C3.17234 8.57895 3.09622 8.64064 3.05422 8.72464C3.01222 8.8082 3.00828 8.9062 3.04284 8.99326C3.04284 8.99326 3.78353 10.8526 4.16065 11.7994C4.34484 12.2618 4.84578 12.513 5.32659 12.3843C5.86603 12.24 6.18584 11.6856 6.04147 11.1466L5.34803 8.55839Z" fill="#E21A1A"/>
<path fill-rule="evenodd" clip-rule="evenodd" d="M12.6498 4.4087L11.3807 4.74864C11.2061 4.79545 11.102 4.9757 11.1488 5.1507C11.1956 5.3257 11.3758 5.42939 11.5508 5.38257L12.8196 5.04264C12.9946 4.99582 13.0987 4.81557 13.0519 4.64057C13.0051 4.46557 12.8248 4.36189 12.6498 4.4087Z" fill="#E21A1A"/>
<path fill-rule="evenodd" clip-rule="evenodd" d="M11.375 2.02521L10.3189 2.80659C10.1736 2.91421 10.1426 3.11984 10.2502 3.26553C10.3582 3.41121 10.5639 3.44184 10.7091 3.33421L11.7657 2.55284C11.9109 2.44521 11.942 2.23959 11.8339 2.0939C11.7263 1.94821 11.5207 1.91759 11.375 2.02521Z" fill="#E21A1A"/>
<path fill-rule="evenodd" clip-rule="evenodd" d="M12.9469 7.10325L11.6441 6.93437C11.4643 6.91119 11.2998 7.03806 11.2766 7.21744C11.2529 7.39725 11.3803 7.56175 11.5596 7.58537L12.8625 7.75425C13.0423 7.77744 13.2068 7.65056 13.23 7.47075C13.2536 7.29137 13.1263 7.12644 12.9469 7.10325Z" fill="#E21A1A"/>
</svg>
