<svg width="36" height="36" viewBox="0 0 36 36" fill="none" xmlns="http://www.w3.org/2000/svg">
<path d="M13 13.5C12.4477 13.5 12 13.9477 12 14.5V14.75C12 15.3023 12.4477 15.75 13 15.75H14.375C14.9273 15.75 15.375 16.1977 15.375 16.75V21.5C15.375 22.0523 15.8227 22.5 16.375 22.5H16.625C17.1773 22.5 17.625 22.0523 17.625 21.5V16.75C17.625 16.1977 18.0727 15.75 18.625 15.75H20C20.5523 15.75 21 15.3023 21 14.75V14.5C21 13.9477 20.5523 13.5 20 13.5H13ZM9 13.5H4.5C3.675 13.5 3 14.175 3 15V21.5C3 22.0523 3.44772 22.5 4 22.5H4.25C4.80228 22.5 5.25 22.0523 5.25 21.5V21.25C5.25 20.6977 5.69772 20.25 6.25 20.25H7.25C7.80228 20.25 8.25 20.6977 8.25 21.25V21.5C8.25 22.0523 8.69772 22.5 9.25 22.5H9.5C10.0523 22.5 10.5 22.0523 10.5 21.5V15C10.5 14.175 9.825 13.5 9 13.5ZM8.25 17C8.25 17.5523 7.80228 18 7.25 18H6.25C5.69772 18 5.25 17.5523 5.25 17V16.75C5.25 16.1977 5.69772 15.75 6.25 15.75H7.25C7.80228 15.75 8.25 16.1977 8.25 16.75V17ZM31.5 13.5H24.75C23.925 13.5 23.25 14.175 23.25 15V21.5C23.25 22.0523 23.6977 22.5 24.25 22.5H24.5C25.0523 22.5 25.5 22.0523 25.5 21.5V16.5C25.5 16.0858 25.8358 15.75 26.25 15.75C26.6642 15.75 27 16.0858 27 16.5V20C27 20.5523 27.4477 21 28 21H28.25C28.8023 21 29.25 20.5523 29.25 20V16.485C29.25 16.0708 29.5858 15.735 30 15.735C30.4142 15.735 30.75 16.0708 30.75 16.485V21.5C30.75 22.0523 31.1977 22.5 31.75 22.5H32C32.5523 22.5 33 22.0523 33 21.5V15C33 14.175 32.325 13.5 31.5 13.5Z" fill="white"/>
</svg>
