<svg width="31" height="31" viewBox="0 0 31 31" fill="none" xmlns="http://www.w3.org/2000/svg">
<path d="M25.8125 5.1875H5.1875C3.75664 5.1875 2.62227 6.33477 2.62227 7.76562L2.60938 23.2344C2.60938 24.6652 3.75664 25.8125 5.1875 25.8125H25.8125C27.2434 25.8125 28.3906 24.6652 28.3906 23.2344V7.76562C28.3906 6.33477 27.2434 5.1875 25.8125 5.1875ZM25.8125 22.2344C25.8125 22.7867 25.3648 23.2344 24.8125 23.2344H6.1875C5.63522 23.2344 5.1875 22.7867 5.1875 22.2344V16.5C5.1875 15.9477 5.63522 15.5 6.1875 15.5H24.8125C25.3648 15.5 25.8125 15.9477 25.8125 16.5V22.2344ZM25.8125 9.34375C25.8125 9.89603 25.3648 10.3438 24.8125 10.3438H6.1875C5.63522 10.3438 5.1875 9.89603 5.1875 9.34375V8.76562C5.1875 8.21334 5.63522 7.76562 6.1875 7.76562H24.8125C25.3648 7.76562 25.8125 8.21334 25.8125 8.76562V9.34375Z" fill="white"/>
</svg>
