<svg width="31" height="31" viewBox="0 0 31 31" fill="none" xmlns="http://www.w3.org/2000/svg">
<path d="M19.5714 4H10.4286C8.53143 4 7 5.46182 7 7.27273V24.7273C7 26.5382 8.53143 28 10.4286 28H19.5714C21.4686 28 23 26.5382 23 24.7273V7.27273C23 5.46182 21.4686 4 19.5714 4ZM20.7143 21.5455C20.7143 22.0977 20.2666 22.5455 19.7143 22.5455H10.2857C9.73343 22.5455 9.28571 22.0977 9.28571 21.5455V8.27273C9.28571 7.72044 9.73343 7.27273 10.2857 7.27273H19.7143C20.2666 7.27273 20.7143 7.72044 20.7143 8.27273V21.5455ZM17.2857 25.2727C17.2857 25.574 17.0415 25.8182 16.7403 25.8182H13.2597C12.9585 25.8182 12.7143 25.574 12.7143 25.2727C12.7143 24.9715 12.9585 24.7273 13.2597 24.7273H16.7403C17.0415 24.7273 17.2857 24.9715 17.2857 25.2727Z" fill="white"/>
</svg>
