<svg width="31" height="31" viewBox="0 0 31 31" fill="none" xmlns="http://www.w3.org/2000/svg">
<path d="M9.65296 15.2188C9.65296 14.6665 9.20525 14.2188 8.65296 14.2188H8.12664C7.57436 14.2188 7.12664 14.6665 7.12664 15.2188V21.9688C7.12664 22.521 7.57436 22.9688 8.12664 22.9688H8.65296C9.20525 22.9688 9.65296 22.521 9.65296 21.9688V15.2188ZM17.2319 15.2188C17.2319 14.6665 16.7842 14.2188 16.2319 14.2188H15.7056C15.1533 14.2188 14.7056 14.6665 14.7056 15.2188V21.9688C14.7056 22.521 15.1533 22.9688 15.7056 22.9688H16.2319C16.7842 22.9688 17.2319 22.521 17.2319 21.9688V15.2188ZM27.9688 26.4688C27.9688 25.9165 27.521 25.4688 26.9688 25.4688H4.96875C4.41647 25.4688 3.96875 25.9165 3.96875 26.4688V26.9688C3.96875 27.521 4.41647 27.9688 4.96875 27.9688H26.9688C27.521 27.9688 27.9688 27.521 27.9688 26.9688V26.4688ZM24.8109 15.2188C24.8109 14.6665 24.3631 14.2188 23.8109 14.2188H23.2845C22.7323 14.2188 22.2845 14.6665 22.2845 15.2188V21.9688C22.2845 22.521 22.7323 22.9688 23.2845 22.9688H23.8109C24.3631 22.9688 24.8109 22.521 24.8109 21.9688V15.2188ZM15.5071 6.03401C15.7964 5.88342 16.1411 5.88342 16.4304 6.03401L18.9239 7.33169C19.8521 7.8148 19.5087 9.21875 18.4622 9.21875H13.4753C12.4288 9.21875 12.0854 7.8148 13.0136 7.33169L15.5071 6.03401ZM16.4307 3.20934C16.1412 3.05856 15.7963 3.05856 15.5068 3.20934L4.50682 8.93851C4.17615 9.11073 3.96875 9.4526 3.96875 9.82542V10.7188C3.96875 11.271 4.41647 11.7188 4.96875 11.7188H26.9688C27.521 11.7188 27.9688 11.271 27.9688 10.7188V9.82542C27.9688 9.4526 27.7613 9.11073 27.4307 8.93851L16.4307 3.20934Z" fill="white"/>
</svg>
